REM DIRINDEX 1\4,1\2\5,1\2\6,1\3\7,1\3\8
REM DIRNAME folder01,folder02,folder03,folder04,folder05,folder06,folder07,folder08
TITLE ""
FILE "056_Day28_Check3_Sentences.mp3" MP3
  TRACK 01 AUDIO
    TITLE "0:"
    INDEX 01 00:00:00
  TRACK 02 AUDIO
    TITLE "4:cjc124_1818"
    INDEX 01 00:00:25
  TRACK 03 AUDIO
    TITLE "0:"
    INDEX 01 00:01:52
  TRACK 04 AUDIO
    TITLE "7:cjc124_1819"
    INDEX 01 00:02:26
  TRACK 05 AUDIO
    TITLE "0:"
    INDEX 01 00:06:41
  TRACK 06 AUDIO
    TITLE "8:cjc124_1820"
    INDEX 01 00:06:57
  TRACK 07 AUDIO
    TITLE "0:"
    INDEX 01 00:09:71
  TRACK 08 AUDIO
    TITLE "7:cjc124_1821"
    INDEX 01 00:10:35
  TRACK 09 AUDIO
    TITLE "0:"
    INDEX 01 00:13:65
  TRACK 10 AUDIO
    TITLE "8:cjc124_1822"
    INDEX 01 00:14:15
  TRACK 11 AUDIO
    TITLE "0:"
    INDEX 01 00:18:01
  TRACK 12 AUDIO
    TITLE "7:cjc124_1823"
    INDEX 01 00:18:37
  TRACK 13 AUDIO
    TITLE "0:"
    INDEX 01 00:22:05
  TRACK 14 AUDIO
    TITLE "8:cjc124_1824"
    INDEX 01 00:22:19
  TRACK 15 AUDIO
    TITLE "0:"
    INDEX 01 00:25:58
  TRACK 16 AUDIO
    TITLE "7:cjc124_1825"
    INDEX 01 00:26:22
  TRACK 17 AUDIO
    TITLE "0:"
    INDEX 01 00:30:14
  TRACK 18 AUDIO
    TITLE "8:cjc124_1826"
    INDEX 01 00:30:30
  TRACK 19 AUDIO
    TITLE "0:"
    INDEX 01 00:33:05
  TRACK 20 AUDIO
    TITLE "7:cjc124_1827"
    INDEX 01 00:33:40
  TRACK 21 AUDIO
    TITLE "0:"
    INDEX 01 00:36:74
  TRACK 22 AUDIO
    TITLE "8:cjc124_1828"
    INDEX 01 00:37:12
  TRACK 23 AUDIO
    TITLE "0:"
    INDEX 01 00:40:23
  TRACK 24 AUDIO
    TITLE "7:cjc124_1829"
    INDEX 01 00:40:58
  TRACK 25 AUDIO
    TITLE "0:"
    INDEX 01 00:44:38
  TRACK 26 AUDIO
    TITLE "8:cjc124_1830"
    INDEX 01 00:44:54
  TRACK 27 AUDIO
    TITLE "0:"
    INDEX 01 00:47:56
  TRACK 28 AUDIO
    TITLE "7:cjc124_1831"
    INDEX 01 00:48:16
  TRACK 29 AUDIO
    TITLE "0:"
    INDEX 01 00:51:58
  TRACK 30 AUDIO
    TITLE "8:cjc124_1832"
    INDEX 01 00:52:02
  TRACK 31 AUDIO
    TITLE "0:"
    INDEX 01 00:55:61
  TRACK 32 AUDIO
    TITLE "7:cjc124_1833"
    INDEX 01 00:56:22
  TRACK 33 AUDIO
    TITLE "0:"
    INDEX 01 00:59:38
  TRACK 34 AUDIO
    TITLE "8:cjc124_1834"
    INDEX 01 00:59:55
  TRACK 35 AUDIO
    TITLE "0:"
    INDEX 01 01:02:46
  TRACK 36 AUDIO
    TITLE "7:cjc124_1835"
    INDEX 01 01:03:08
  TRACK 37 AUDIO
    TITLE "0:"
    INDEX 01 01:05:50
  TRACK 38 AUDIO
    TITLE "8:cjc124_1836"
    INDEX 01 01:05:68
  TRACK 39 AUDIO
    TITLE "0:"
    INDEX 01 01:08:56
  TRACK 40 AUDIO
    TITLE "7:cjc124_1837"
    INDEX 01 01:09:18
  TRACK 41 AUDIO
    TITLE "0:"
    INDEX 01 01:11:54
  TRACK 42 AUDIO
    TITLE "8:cjc124_1838"
    INDEX 01 01:11:70
  TRACK 43 AUDIO
    TITLE "0:"
    INDEX 01 01:13:73
  TRACK 44 AUDIO
    TITLE "7:cjc124_1839"
    INDEX 01 01:14:37
  TRACK 45 AUDIO
    TITLE "0:"
    INDEX 01 01:17:53
  TRACK 46 AUDIO
    TITLE "8:cjc124_1840"
    INDEX 01 01:17:67
  TRACK 47 AUDIO
    TITLE "0:"
    INDEX 01 01:20:38
  TRACK 48 AUDIO
    TITLE "7:cjc124_1841"
    INDEX 01 01:21:06
  TRACK 49 AUDIO
    TITLE "0:"
    INDEX 01 01:24:53
  TRACK 50 AUDIO
    TITLE "8:cjc124_1842"
    INDEX 01 01:24:69
  TRACK 51 AUDIO
    TITLE "0:"
    INDEX 01 01:28:04
  TRACK 52 AUDIO
    TITLE "7:cjc124_1843"
    INDEX 01 01:28:43
  TRACK 53 AUDIO
    TITLE "0:"
    INDEX 01 01:33:19
  TRACK 54 AUDIO
    TITLE "8:cjc124_1844"
    INDEX 01 01:33:33
  TRACK 55 AUDIO
    TITLE "0:"
    INDEX 01 01:37:32
  TRACK 56 AUDIO
    TITLE "7:cjc124_1845"
    INDEX 01 01:37:68
  TRACK 57 AUDIO
    TITLE "0:"
    INDEX 01 01:41:44
  TRACK 58 AUDIO
    TITLE "8:cjc124_1846"
    INDEX 01 01:41:57
  TRACK 59 AUDIO
    TITLE "0:"
    INDEX 01 01:45:51
  TRACK 60 AUDIO
    TITLE "7:cjc124_1847"
    INDEX 01 01:46:14
  TRACK 61 AUDIO
    TITLE "0:"
    INDEX 01 01:50:37
  TRACK 62 AUDIO
    TITLE "8:cjc124_1848"
    INDEX 01 01:50:54
  TRACK 63 AUDIO
    TITLE "0:"
    INDEX 01 01:54:19
  TRACK 64 AUDIO
    TITLE "7:cjc124_1849"
    INDEX 01 01:54:58
  TRACK 65 AUDIO
    TITLE "0:"
    INDEX 01 01:57:74
  TRACK 66 AUDIO
    TITLE "8:cjc124_1850"
    INDEX 01 01:58:19
  TRACK 67 AUDIO
    TITLE "0:"
    INDEX 01 02:01:45
